<svg xmlns="http://www.w3.org/2000/svg" width="624" height="183" viewBox="0 0 624 183">
  <path d="M150.26 4.4c1.32.734 1.942 1.064 1.87.99-.076-.072-.368-.237-.88-.495-.516-.256-.99-.495-1.43-.715-.44-.22-.296-.146.44.22 3.08 1.614 5.28 3.503 6.6 5.665 1.32 2.164 1.685 4.345 1.1 6.545l-6.82 27.72h-21.78l6.82-27.72c.292-1.54-.55-2.877-2.53-4.015-1.98-1.136-4.51-1.705-7.59-1.705h-6.6c-3.08 0-5.906.55-8.47 1.65-2.568 1.1-3.998 2.458-4.29 4.07l-13.64 55c-.295 1.54.55 2.86 2.53 3.96s4.51 1.65 7.59 1.65h6.6c3.224 0 6.084-.567 8.58-1.705 2.492-1.136 3.96-2.51 4.4-4.125l1.1-5.28H104.5l2.64-10.89h41.36l-3.96 16.17c-.88 3.594-3.706 6.803-8.47 9.625-4.768 2.824-10.525 4.86-17.27 6.105-3.816.66-7.7.99-11.66.99h-6.6c-4.548 0-8.728-.42-12.54-1.265-3.815-.842-7.04-2.016-9.68-3.52-2.64-1.502-4.585-3.245-5.83-5.225-1.248-1.98-1.65-4.106-1.21-6.38L84.7 16.61c.584-2.272 1.98-4.417 4.18-6.435 2.2-2.016 5.022-3.776 8.47-5.28 3.444-1.502 7.294-2.695 11.55-3.575C113.152.44 117.625 0 122.32 0h6.38c3.96 0 7.844.368 11.66 1.1 3.812.734 7.112 1.834 9.9 3.3zM221.54 0c4.543 0 8.76.44 12.65 1.32 3.883.88 7.15 2.054 9.79 3.52 2.64 1.468 4.58 3.228 5.83 5.28 1.243 2.054 1.573 4.218.99 6.49l-17.6 71.5h-21.78l2.64-10.89 2.64-11.11h-29.48l-2.64 11.11-2.64 10.89h-22l5.5-22h-7.92l2.64-10.89h7.92l9.46-38.61c.583-2.272 2.013-4.436 4.29-6.49 2.27-2.052 5.093-3.812 8.47-5.28 3.372-1.466 7.184-2.64 11.44-3.52C205.99.44 210.39 0 214.94 0h6.6zm7.48 16.61c.29-1.612-.517-2.97-2.42-4.07-1.91-1.1-4.477-1.65-7.7-1.65h-6.6c-3.08 0-5.906.55-8.47 1.65-2.57 1.1-4 2.458-4.29 4.07l-3.74 14.96-5.72 23.65h29.48l5.72-23.65 3.74-14.96zM340.777 31.79c-.588 2.2-1.87 4.254-3.85 6.16-1.98 1.908-4.51 3.594-7.59 5.06 2.344 1.468 4.07 3.173 5.17 5.115 1.1 1.944 1.354 3.98.77 6.105l-8.36 33.88h-22l2.86-10.89 5.5-22.99c.44-1.612-.33-2.97-2.31-4.07s-4.51-1.65-7.59-1.65h-18.04l-7.04 28.71-2.86 10.89h-21.78l9.68-39.6h-7.92l2.64-10.89h7.92L275.217 0h40.04c4.544 0 8.724.44 12.54 1.32 3.812.88 7.04 2.054 9.68 3.52 2.64 1.468 4.62 3.228 5.94 5.28 1.32 2.054 1.685 4.218 1.1 6.49l-3.74 15.18zm-34.76 5.83c3.08 0 5.902-.567 8.47-1.705 2.564-1.136 3.994-2.51 4.29-4.125l.22-.22 3.52-14.96c.44-1.612-.33-2.97-2.31-4.07s-4.585-1.65-7.81-1.65h-17.82l-5.06 20.68-1.54 6.05h18.04zM408.976 0c4.544 0 8.762.44 12.65 1.32 3.884.88 7.15 2.054 9.79 3.52 2.64 1.468 4.582 3.228 5.83 5.28 1.244 2.054 1.574 4.218.99 6.49l-17.6 71.5h-21.78l2.64-10.89 2.64-11.11h-29.48l-2.64 11.11-2.64 10.89h-22l5.5-22h-7.92l2.64-10.89h7.92l9.46-38.61c.584-2.272 2.014-4.436 4.29-6.49 2.272-2.052 5.095-3.812 8.47-5.28 3.373-1.466 7.185-2.64 11.44-3.52 4.252-.88 8.652-1.32 13.2-1.32h6.6zm7.48 16.61c.293-1.612-.516-2.97-2.42-4.07-1.907-1.1-4.476-1.65-7.7-1.65h-6.6c-3.08 0-5.905.55-8.47 1.65-2.567 1.1-3.998 2.458-4.29 4.07l-3.74 14.96-5.72 23.65h29.48l5.72-23.65 3.74-14.96zM520.295 4.4c1.32.734 1.943 1.064 1.87.99-.075-.072-.368-.237-.88-.495-.516-.256-.99-.495-1.43-.715l.44.22c3.08 1.614 5.28 3.503 6.6 5.665 1.32 2.164 1.686 4.345 1.102 6.545l-6.82 27.72h-21.78l6.82-27.72c.292-1.54-.55-2.877-2.53-4.015-1.98-1.136-4.51-1.705-7.59-1.705h-6.6c-3.08 0-5.906.55-8.47 1.65-2.57 1.1-4 2.458-4.292 4.07l-13.64 55c-.296 1.54.55 2.86 2.53 3.96 1.98 1.1 4.51 1.65 7.59 1.65h6.6c3.224 0 6.085-.567 8.58-1.705 2.492-1.136 3.96-2.51 4.4-4.125l1.1-5.28h-19.36l2.64-10.89h41.362l-3.96 16.17c-.88 3.594-3.707 6.803-8.47 9.625-4.77 2.824-10.526 4.86-17.27 6.105-3.817.66-7.702.99-11.662.99h-6.6c-4.548 0-8.73-.42-12.54-1.265-3.816-.842-7.04-2.016-9.68-3.52-2.64-1.502-4.586-3.245-5.83-5.225-1.248-1.98-1.65-4.106-1.21-6.38l13.42-55.11c.584-2.272 1.98-4.417 4.18-6.435 2.2-2.016 5.02-3.776 8.47-5.28 3.444-1.502 7.294-2.695 11.55-3.575C483.188.44 487.66 0 492.355 0h6.38c3.96 0 7.845.368 11.66 1.1 3.812.734 7.113 1.834 9.9 3.3zM623.693 0l-2.64 10.89h-39.82c-3.23 0-6.088.55-8.58 1.65-2.496 1.1-3.96 2.458-4.4 4.07l-3.74 14.96-1.32 5.94H595.533l-2.64 11h-32.56L556.153 66l-1.1 4.62-.22.77c-.297 1.468.29 2.714 1.76 3.74 1.465 1.028 3.52 1.688 6.16 1.98H604.773L602.132 88v.11h-41.69c-.515 0-1.136-.036-1.868-.11-2.496-.072-5.06-.366-7.7-.88-6.16-1.172-10.93-3.17-14.3-5.995-3.377-2.822-4.62-6.067-3.74-9.735l1.32-5.28 1.54-5.72 1.1-5.17 1.76-6.71h-7.92l2.64-10.89h7.92l5.28-21.01c.88-3.592 3.702-6.8 8.47-9.625 4.766-2.822 10.45-4.82 17.05-5.995C575.66.33 579.618 0 583.874 0H623.693z"/>
  <g>
    <path d="M87.12 126.83c-.588 2.2-1.87 4.253-3.85 6.16-1.98 1.908-4.51 3.594-7.59 5.06 2.344 1.47 4.07 3.174 5.17 5.115 1.1 1.944 1.354 3.98.77 6.105l-8.36 33.88h-22l2.86-10.89 5.5-22.99c.44-1.612-.33-2.97-2.31-4.07s-4.51-1.65-7.59-1.65H31.68l-7.04 28.71-2.86 10.89H0l9.68-39.6H1.76l2.64-10.89h7.92l9.24-37.62H61.6c4.544 0 8.724.44 12.54 1.32 3.812.88 7.04 2.054 9.68 3.52 2.64 1.468 4.62 3.228 5.94 5.28 1.32 2.054 1.685 4.218 1.1 6.49l-3.74 15.18zm-34.76 5.83c3.08 0 5.902-.567 8.47-1.705 2.564-1.136 3.994-2.51 4.29-4.125l.22-.22 3.52-14.96c.44-1.612-.33-2.97-2.31-4.07s-4.585-1.65-7.81-1.65H40.92l-5.06 20.68-1.54 6.05h18.04zM155.32 95.04c4.543 0 8.76.44 12.65 1.32 3.883.88 7.15 2.054 9.79 3.52 2.64 1.468 4.58 3.228 5.83 5.28 1.243 2.054 1.573 4.218.99 6.49l-17.6 71.5H145.2l2.64-10.89 2.64-11.11H121l-2.64 11.11-2.64 10.89h-22l5.5-22H91.3l2.64-10.89h7.92l9.46-38.61c.584-2.272 2.014-4.436 4.29-6.49 2.272-2.052 5.094-3.812 8.47-5.28 3.373-1.466 7.185-2.64 11.44-3.52 4.252-.88 8.652-1.32 13.2-1.32h6.6zm7.48 16.61c.29-1.612-.517-2.97-2.42-4.07-1.91-1.1-4.477-1.65-7.7-1.65h-6.6c-3.08 0-5.906.55-8.47 1.65-2.57 1.1-4 2.458-4.29 4.07l-3.74 14.96-5.72 23.65h29.48l5.72-23.65 3.74-14.96zM211.418 161.15l-1.1 5.28c-.44 1.613.33 2.988 2.31 4.125 1.98 1.138 4.51 1.705 7.59 1.705h40.04l-2.86 10.89h-39.82c-3.96 0-7.7-.33-11.22-.99-6.16-1.172-10.928-3.17-14.3-5.995-3.376-2.822-4.62-6.066-3.74-9.734l1.32-5.28 2.64-10.89 9.46-38.61c.88-3.59 3.74-6.8 8.58-9.624 4.84-2.822 10.56-4.82 17.16-5.995 3.665-.66 7.625-.99 11.88-.99h39.82l-2.64 10.89h-40.04c-3.08 0-5.906.55-8.47 1.65-2.568 1.1-3.998 2.46-4.29 4.07l-3.74 14.96-5.72 23.65-.44 1.32-2.42 9.57zM370.476 95.04l-2.64 10.89h-39.82c-3.228 0-6.088.55-8.58 1.65-2.496 1.1-3.96 2.458-4.4 4.07l-3.74 14.96-1.32 5.94H342.316l-2.64 11h-32.56l-4.18 17.49-1.1 4.62-.22.77c-.295 1.468.292 2.714 1.76 3.74 1.464 1.027 3.52 1.687 6.16 1.98H351.556l-2.64 10.89v.11h-41.69c-.516 0-1.138-.037-1.87-.11-2.496-.073-5.06-.367-7.7-.88-6.16-1.173-10.928-3.172-14.3-5.996-3.375-2.822-4.62-6.066-3.74-9.734l1.32-5.28 1.54-5.72 1.1-5.17 1.76-6.71h-7.92l2.64-10.89h7.92l5.28-21.01c.88-3.593 3.702-6.802 8.47-9.626 4.764-2.822 10.45-4.82 17.05-5.995 3.665-.66 7.625-.99 11.88-.99h39.82zM455.174 126.83c-.588 2.2-1.87 4.253-3.85 6.16-1.98 1.908-4.51 3.594-7.59 5.06 2.344 1.47 4.07 3.174 5.17 5.115 1.1 1.944 1.353 3.98.77 6.105l-8.36 33.88h-22l2.86-10.89 5.5-22.99c.44-1.612-.33-2.97-2.31-4.07s-4.51-1.65-7.59-1.65h-18.04l-7.04 28.71-2.86 10.89h-21.78l9.68-39.6h-7.92l2.64-10.89h7.92l9.24-37.62h40.04c4.545 0 8.725.44 12.54 1.32 3.813.88 7.04 2.054 9.68 3.52 2.64 1.468 4.62 3.228 5.94 5.28 1.32 2.054 1.685 4.218 1.1 6.49l-3.74 15.18zm-34.76 5.83c3.08 0 5.902-.567 8.47-1.705 2.565-1.136 3.995-2.51 4.29-4.125l.22-.22 3.522-14.96c.44-1.612-.33-2.97-2.31-4.07s-4.586-1.65-7.81-1.65h-17.82l-5.06 20.68-1.54 6.05h18.04zM539.213 158.84l-1.76 7.59-.44.99c-1.175 3.447-4.07 6.473-8.688 9.074-4.62 2.604-10.158 4.493-16.61 5.665-1.76.293-3.558.532-5.39.714-1.836.185-3.707.275-5.61.275h-40.7l2.64-10.89H502.915c3.08-.073 5.863-.66 8.36-1.762 2.49-1.1 3.884-2.42 4.18-3.96l4.18-17.27c.44-1.54-.296-2.877-2.2-4.015-1.908-1.137-4.477-1.705-7.7-1.705H502.256c-4.4-.072-8.398-.53-11.99-1.375-3.596-.843-6.676-1.962-9.24-3.355-2.568-1.393-4.51-3.042-5.83-4.95-1.32-1.906-1.836-3.922-1.54-6.05l.22-.99 3.74-15.18c.88-3.592 3.703-6.8 8.47-9.625 4.764-2.822 10.52-4.82 17.27-5.995 3.664-.66 7.553-.99 11.66-.99h39.82l-2.64 10.89h-39.82c-3.228 0-6.09.55-8.58 1.65-2.495 1.1-3.96 2.458-4.4 4.07l-3.74 15.18c-.296 1.614.513 2.97 2.42 4.07 1.905 1.1 4.4 1.688 7.48 1.76h6.82v-.11l.22.11c3.96 0 7.626.33 11 .99 6.16 1.174 10.925 3.173 14.3 5.995 3.373 2.824 4.62 6.032 3.74 9.625l-1.98 7.59-.442 1.982z"/>
  </g>
  <path fill="none"  stroke="none" d="M0 0h624v183H0z"/>
</svg>
