<svg xmlns="http://www.w3.org/2000/svg" xmlns:xlink="http://www.w3.org/1999/xlink" width="184" height="184" viewBox="0 0 184 184">
  <defs>
    <path id="a" d="M0 0h184.36v184H0z"/>
  </defs>
  <clipPath id="b">
    <use xlink:href="#a" overflow="visible"/>
  </clipPath>
  <g clip-path="url(#b)">
    <defs>
      <path id="c" d="M0 0h184.36v184H0z"/>
    </defs>
    <clipPath id="d">
      <use xlink:href="#c" overflow="visible"/>
    </clipPath>
    <path d="M107.813 184h-3.234c-.91-1.214-1.978-2.34-2.692-3.66-1.623-2.993-3.115-6.062-4.57-9.142-.482-1.025-1.098-1.35-2.205-1.3-2.09.097-4.19.105-6.28.005-1.142-.055-1.708.367-2.18 1.36-1.544 3.237-3.087 6.48-4.82 9.618-.66 1.19-1.83 2.09-2.77 3.118H76.55c-.39-.12-.77-.29-1.168-.36-13.324-2.423-25.53-7.52-36.623-15.284-2.857-2.002-3.055-4.383-.586-6.854 10.458-10.46 20.917-20.92 31.378-31.377 1.996-1.992 3.06-2.203 5.617-1.037 4.12 1.88 8.43 3.104 12.932 3.467 21.146 1.705 39.623-12.092 43.988-32.852.77-3.67 1.146-7.405.57-11.46-.674.634-1.152 1.06-1.604 1.512-5.89 5.883-11.81 11.735-17.638 17.676-1.635 1.668-3.28 2.102-5.48 1.305-7.188-2.61-14.4-5.156-21.638-7.64-1.748-.6-2.783-1.604-3.385-3.35-2.513-7.288-5.085-14.553-7.696-21.805-.736-2.05-.367-3.646 1.197-5.188 6.058-5.97 12.046-12.007 18.058-18.02.436-.44.855-.892 1.283-1.34l-.194-.515c-2.9.145-5.83.08-8.697.465-27.485 3.694-43.413 32.392-31.997 57.554 1.082 2.383.88 3.684-.94 5.506-10.538 10.55-21.08 21.096-31.632 31.63-2.284 2.284-4.772 2.046-6.634-.61-5.426-7.748-9.623-16.117-12.393-25.16-1.258-4.098-2.186-8.295-3.264-12.45v-2.874c1.19-.928 2.286-2.033 3.595-2.75 2.986-1.633 6.055-3.13 9.14-4.566 1.103-.514 1.43-1.148 1.37-2.332-.113-2.207-.127-4.43.006-6.637.073-1.23-.388-1.798-1.435-2.297C9.49 84.836 6.3 83.32 3.228 81.597 1.998 80.91 1.066 79.684 0 78.703v-2.516c.13-.378.316-.745.39-1.135C2.9 61.642 8.052 49.347 15.94 38.21c1.633-2.306 2.873-2.722 5.53-1.847 3.628 1.194 7.228 2.472 10.876 3.597.557.172 1.494-.09 1.94-.495 1.808-1.65 3.544-3.39 5.188-5.203.402-.446.645-1.385.473-1.948-1.097-3.594-2.33-7.147-3.517-10.713-.96-2.892-.586-4.08 1.875-5.812 8.53-6 17.81-10.455 27.848-13.28C69.473 1.576 72.842.832 76.188 0h3.234c.906 1.21 1.973 2.335 2.686 3.65 1.648 3.042 3.162 6.16 4.654 9.28.426.895.95 1.2 1.926 1.167 2.207-.076 4.42-.078 6.63-.003.978.033 1.5-.28 1.923-1.17 1.44-3.016 2.894-6.03 4.493-8.962.773-1.416 1.887-2.647 2.846-3.962h3.233c.377.133.746.318 1.135.392 13.3 2.502 25.514 7.592 36.584 15.39 2.613 1.84 2.97 2.953 1.98 5.937-1.15 3.457-2.235 6.937-3.472 10.363-.396 1.1-.166 1.715.646 2.46 1.674 1.538 3.29 3.147 4.82 4.824.77.842 1.438.944 2.486.566 3.428-1.232 6.898-2.344 10.35-3.513 2.818-.955 4.145-.547 5.838 1.866 8.09 11.543 13.28 24.28 15.697 38.158.42 2.405-.217 3.742-2.383 4.844-3.465 1.763-6.93 3.522-10.43 5.214-.877.424-1.207.903-1.17 1.9.09 2.39.08 4.79.006 7.18-.03.978.268 1.483 1.164 1.915 3.555 1.71 7.076 3.496 10.592 5.287 1.896.965 2.605 2.36 2.256 4.416-2.39 14.076-7.61 26.992-15.898 38.645-1.564 2.2-2.877 2.623-5.4 1.79-3.572-1.177-7.16-2.32-10.7-3.595-1.093-.395-1.712-.178-2.462.643-1.533 1.678-3.14 3.293-4.822 4.82-.85.773-.936 1.44-.564 2.484 1.26 3.545 2.418 7.127 3.598 10.7.84 2.546.416 3.827-1.795 5.388-8.577 6.06-17.91 10.553-28.013 13.41-3.32.942-6.695 1.682-10.044 2.514m-99.83-75.58c2.105 10.58 5.978 20.298 11.704 29.356.346-.262.5-.355.625-.48 8.684-8.68 17.355-17.37 26.066-26.02.756-.75.674-1.346.348-2.207-3.008-7.94-3.838-16.095-2.6-24.515 4.11-27.927 32.05-46.64 59.418-39.76 1.71.43 3.273.956 3.822 2.812.586 1.98-.406 3.385-1.773 4.74C98.36 59.51 91.19 66.74 83.96 73.908c-.79.784-.97 1.42-.582 2.483 1.984 5.448 3.832 10.944 5.855 16.38.3.8 1.16 1.666 1.963 1.965 5.318 1.986 10.71 3.777 16.03 5.748 1.308.482 2.093.354 3.097-.664 7.19-7.293 14.45-14.518 21.7-21.75 2.69-2.682 5.98-1.796 6.92 1.867 1.733 6.766 2.022 13.604.726 20.467-5.626 29.76-35.98 47.137-64.41 36.863-1.19-.43-1.905-.3-2.802.604-8.094 8.168-16.236 16.287-24.38 24.404-.587.584-1.308 1.03-2.192 1.72 9.508 6.075 19.3 9.956 29.965 12.022 1.933-3.855 3.855-7.633 5.716-11.436.83-1.695 2.11-2.492 3.99-2.482 4.303.02 8.604.02 12.904-.023 1.814-.02 3.09.716 3.89 2.34 1.345 2.74 2.708 5.468 4.075 8.194.58 1.156 1.193 2.3 1.762 3.387 10.574-1.804 26.666-8.52 31.547-13.132-1.326-4.01-2.648-8.04-4-12.064-.6-1.78-.217-3.217 1.145-4.545 3.16-3.093 6.27-6.24 9.35-9.41 1.21-1.245 2.583-1.685 4.228-1.237.863.234 1.697.578 2.55.86 3.327 1.1 6.657 2.192 9.917 3.267 5.453-7.3 11.227-20.945 12.846-30.012.204-1.143-.18-1.572-1.11-2.02-3.285-1.586-6.533-3.248-9.793-4.887-2.387-1.2-2.82-2.18-2.752-4.862.102-3.94.11-7.886-.004-11.826-.08-2.77.35-3.774 2.812-5.02 3.148-1.592 6.262-3.265 9.482-4.694 1.44-.642 1.58-1.42 1.268-2.758-1.586-6.78-3.754-13.355-6.92-19.563-1.727-3.39-3.688-6.66-5.53-9.96-2.32.774-4.304 1.44-6.29 2.1-1.984.66-3.982 1.29-5.96 1.978-1.99.693-3.548.212-4.97-1.37-2.158-2.396-4.36-4.772-6.73-6.96-4.19-3.87-4.767-3.406-2.528-9.773 1.06-3.02 2.02-6.08 3.02-9.106-9.438-6.307-19.495-10.575-30.41-12.827-.966-.2-1.384.06-1.788.888-1.648 3.39-3.412 6.72-5.02 10.128-.95 2.02-2.443 2.726-4.592 2.68-3.94-.085-7.89-.098-11.828.003-2.23.057-3.75-.675-4.723-2.767-1.484-3.2-3.232-6.28-4.67-9.498-.656-1.47-1.443-1.787-2.86-1.318-5.554 1.838-11.237 3.345-16.64 5.546-4.553 1.856-8.78 4.504-13.135 6.79 1.47 4.428 2.766 8.404 4.11 12.362.68 1.992.21 3.51-1.354 4.965-2.887 2.686-5.693 5.472-8.393 8.348-2.208 2.353-3.065 2.702-6.112 1.688-3.78-1.26-7.564-2.518-11.35-3.776-6.244 9.296-10.434 19.258-12.748 30.023-.207.972-.008 1.496.945 1.95 3.346 1.595 6.643 3.287 9.955 4.955 2.35 1.184 2.81 2.22 2.742 4.877-.102 3.94-.117 7.886-.004 11.826.082 2.806-.318 3.743-2.813 5-3.677 1.848-7.356 3.694-11.09 5.57" clip-path="url(#d)" fill-rule="evenodd" clip-rule="evenodd"/>
  </g>
  <path fill="none" stroke="none" d="M0 0h184v184H0z"/>
</svg>
