<svg xmlns="http://www.w3.org/2000/svg" width="512" height="512" viewBox="0 0 512 512">
  <path d="M256 49.47c67.266 0 75.233.257 101.797 1.47 24.563 1.12 37.9 5.224 46.778 8.673 11.76 4.57 20.15 10.03 28.967 18.845 8.815 8.815 14.274 17.208 18.845 28.966 3.45 8.877 7.554 22.217 8.674 46.778 1.213 26.564 1.47 34.532 1.47 101.798s-.257 75.233-1.47 101.797c-1.12 24.563-5.224 37.9-8.673 46.778-4.57 11.76-10.03 20.15-18.845 28.967s-17.208 14.274-28.967 18.845c-8.877 3.45-22.216 7.554-46.778 8.674-26.56 1.213-34.526 1.47-101.797 1.47s-75.237-.257-101.797-1.47c-24.562-1.12-37.9-5.224-46.778-8.673-11.76-4.57-20.15-10.03-28.966-18.845-8.816-8.815-14.276-17.208-18.846-28.967-3.45-8.877-7.553-22.216-8.674-46.777-1.212-26.564-1.468-34.532-1.468-101.798s.256-75.233 1.468-101.797c1.12-24.562 5.225-37.9 8.674-46.778 4.57-11.76 10.03-20.15 18.845-28.966 8.814-8.816 17.207-14.276 28.965-18.846 8.877-3.45 22.217-7.553 46.778-8.674 26.564-1.213 34.53-1.47 101.797-1.47m0-45.39c-68.417 0-76.997.29-103.866 1.516-26.814 1.224-45.127 5.482-61.15 11.71-16.567 6.438-30.616 15.05-44.622 29.057s-22.62 28.054-29.057 44.62c-6.228 16.023-10.486 34.336-11.71 61.15C4.37 179.003 4.08 187.583 4.08 256s.29 76.996 1.516 103.866c1.224 26.814 5.482 45.127 11.71 61.15 6.438 16.566 15.05 30.616 29.057 44.622 14.005 14.005 28.055 22.618 44.62 29.057 16.025 6.228 34.338 10.486 61.152 11.71 26.87 1.226 35.45 1.516 103.866 1.516 68.42 0 76.997-.29 103.867-1.516 26.814-1.223 45.127-5.48 61.15-11.71 16.567-6.437 30.616-15.05 44.622-29.056 14.004-14.006 22.617-28.055 29.056-44.62 6.228-16.025 10.486-34.338 11.71-61.152 1.226-26.87 1.516-35.448 1.516-103.866 0-68.417-.29-76.997-1.517-103.866-1.223-26.814-5.48-45.127-11.71-61.15-6.437-16.567-15.05-30.616-29.056-44.622-14.007-14.005-28.056-22.62-44.622-29.057-16.024-6.228-34.337-10.486-61.15-11.71C332.995 4.37 324.417 4.08 256 4.08z"/>
  <path d="M256 126.635c-71.446 0-129.365 57.918-129.365 129.365S184.555 385.364 256 385.364 385.364 327.446 385.364 256 327.446 126.635 256 126.635zm0 213.34c-46.377 0-83.974-37.598-83.974-83.975 0-46.377 37.596-83.974 83.974-83.974 46.377 0 83.974 37.596 83.974 83.974 0 46.377-37.597 83.974-83.974 83.974z"/>
  <circle cx="390.476" cy="121.524" r="30.23"/>
</svg>