<svg xmlns="http://www.w3.org/2000/svg" width="773.287" height="481.076" viewBox="0 0 773.287 481.076">
  <g fill="#FFF">
    <path d="M323.265 305.196h-19v-11c-7.203 8.256-13.31 12.426-19.965 12.426-5.84 0-9.896-2.755-11.926-7.732-1.234-3.026-2.11-7.752-2.11-14.693v-80h19v82c.444 2.807 1.636 3.832 4.052 3.832 3.637 0 6.928-3.16 10.95-8.833v-77h19v101zM256.265 237.196c0-10.793-2.168-18.898-6-24-5.062-6.908-13-9.736-21-9.736-9.055 0-15.946 2.828-21 9.736-3.893 5.102-5.98 13.294-5.98 24.088l-.02 35.912c0 10.732 1.857 18.148 5.75 23.2 5.054 6.888 13.25 10.536 21.25 10.536s16.34-3.648 21.4-10.535c3.832-5.053 5.6-12.47 5.6-23.2v-36zm-19 38c1 10-2.102 14.962-8 14.962s-9-4.962-8-14.962v-40c-1-10 2.1-14.687 8-14.687s9.01 4.686 8.01 14.686l-.01 40zM181.265 250.196v55h-20v-55s-20.725-67.43-25-80h21L171.3 222.87l13.965-52.674h21l-25 80z"/>
  </g>
  <g fill="#FFF">
    <path d="M518.687 220.26c-2.98 0-6.395 1.573-9.422 4.56l-.02 60.647c3.026 3.027 6.46 4.562 9.44 4.562 5.222 0 7.58-3.833 7.58-13.833v-43c0-10-2.358-12.937-7.578-12.937zM593.265 232.28c0-9.243-2.39-12.02-8.39-12.02-6.048 0-8.61 2.55-8.61 11.895v11.06l17-.02V232.28z"/>
    <path d="M634.306 181.104s-2.918-20.485-11.87-29.506c-11.355-11.84-24.085-11.898-29.92-12.59C550.728 136 488.05 136 488.05 136h-.13s-62.683 0-104.468 3.007c-5.838.692-18.563.752-29.92 12.59-8.953 9.022-11.867 29.507-11.867 29.507s-2.986 24.055-2.986 48.112v22.553c0 24.054 2.985 48.108 2.985 48.108s2.914 20.484 11.867 29.506c11.357 11.842 26.28 11.465 32.926 12.705 23.89 2.282 101.525 2.987 101.525 2.987s62.746-.094 104.53-3.1c5.837-.693 18.567-.752 29.92-12.594 8.954-9.02 11.872-29.506 11.872-29.506s2.982-24.055 2.982-48.11v-22.552c0-24.056-2.98-48.11-2.98-48.11zm-230.04 124.092h-20v-115h-21v-18.98l63-.02v19h-22v115zm72 0h-19v-11c-7.204 8.256-13.31 12.426-19.966 12.426-5.84 0-9.896-2.755-11.926-7.732-1.234-3.026-2.11-7.752-2.11-14.693v-79h19v81c.444 2.807 1.636 3.832 4.052 3.832 3.637 0 6.928-3.16 10.95-8.833v-76h19v100zm69-30c0 9.242-.792 15.764-2 20-2.417 7.43-7.685 11.29-14.894 11.29-6.438 0-13.033-3.874-19.082-11.358l-.025 10.068h-18v-134h18l-.02 43.688c5.847-7.195 12.467-11.292 19.127-11.292 7.21 0 12.055 4.164 14.47 11.648 1.21 4.02 2.423 10.49 2.423 19.956v40zm39.776 14.832c4.457 0 7.055-2.424 8.088-7.264.168-.986.136-5.305.136-12.568h19v2.834c0 5.834-.48 9.963-.644 11.775-.61 4.014-2.033 7.645-4.234 10.848-5.008 7.256-12.438 10.832-21.896 10.832-9.47 0-16.68-3.408-21.914-10.236-3.846-5-6.313-12.435-6.313-23.054v-35c0-10.68 2.244-18.936 6.09-23.99 5.236-6.84 12.445-10.458 21.688-10.458 9.082 0 16.29 3.62 21.365 10.457 3.785 5.055 5.89 12.867 5.89 23.547l.003 20.443h-36.034v17.958c-.064 9.23 2.56 13.875 8.776 13.875z"/>
  </g>
</svg>