<svg xmlns="http://www.w3.org/2000/svg"  viewBox="0 0 773.287 481.076">
  <linearGradient id="a" gradientUnits="userSpaceOnUse" x1="487.983" y1="136" x2="487.983" y2="345.078">
    <stop offset="0" stop-color="#E32E28"/>
    <stop offset="1" stop-color="#BE2126"/>
  </linearGradient>
  <path d="M634.306 181.104s-2.918-20.485-11.87-29.506c-11.355-11.84-24.085-11.898-29.92-12.59C550.728 136 488.05 136 488.05 136h-.13s-62.683 0-104.468 3.007c-5.838.692-18.563.752-29.92 12.59-8.953 9.022-11.867 29.507-11.867 29.507s-2.986 24.055-2.986 48.112v22.553c0 24.054 2.985 48.108 2.985 48.108s2.914 20.484 11.867 29.506c11.357 11.842 26.28 11.465 32.926 12.705 23.89 2.282 101.525 2.987 101.525 2.987s62.746-.094 104.53-3.1c5.837-.693 18.567-.752 29.92-12.594 8.954-9.02 11.872-29.506 11.872-29.506s2.982-24.055 2.982-48.11v-22.552c0-24.056-2.98-48.11-2.98-48.11z" fill="url(#a)"  stroke="none"/>
  <path d="M323.265 305.196h-19v-11c-7.203 8.256-13.31 12.426-19.965 12.426-5.84 0-9.896-2.755-11.926-7.732-1.234-3.026-2.11-7.752-2.11-14.693v-80h19v82c.444 2.807 1.636 3.832 4.052 3.832 3.637 0 6.928-3.16 10.95-8.833v-77h19v101zM256.265 237.196c0-10.793-2.168-18.898-6-24-5.062-6.908-13-9.736-21-9.736-9.055 0-15.946 2.828-21 9.736-3.893 5.102-5.98 13.294-5.98 24.088l-.02 35.912c0 10.732 1.857 18.148 5.75 23.2 5.054 6.888 13.25 10.536 21.25 10.536s16.34-3.648 21.4-10.535c3.832-5.053 5.6-12.47 5.6-23.2v-36zm-19 38c1 10-2.102 14.962-8 14.962s-9-4.962-8-14.962v-40c-1-10 2.1-14.687 8-14.687s9.01 4.686 8.01 14.686l-.01 40zM181.265 250.196v55h-20v-55s-20.725-67.43-25-80h21L171.3 222.87l13.965-52.674h21l-25 80z"  stroke="none"/>
  <g fill="#FFF" stroke="none">
    <path d="M612.3 258.196l-.004-20.443c0-10.68-2.104-18.493-5.89-23.547-5.073-6.838-12.282-10.457-21.364-10.457-9.242 0-16.45 3.618-21.688 10.456-3.846 5.055-6.09 13.31-6.09 23.99v35c0 10.62 2.467 18.054 6.313 23.054 5.234 6.828 12.443 10.236 21.914 10.236 9.46 0 16.89-3.576 21.897-10.832 2.2-3.203 3.623-6.834 4.234-10.848.163-1.813.644-5.94.644-11.775v-2.833h-19c0 7.264.033 11.582-.135 12.568-1.034 4.84-3.632 7.264-8.09 7.264-6.214 0-8.84-4.647-8.776-13.875v-17.958H612.3zm-36.035-26.04c0-9.347 2.563-11.896 8.61-11.896 6 0 8.39 2.777 8.39 12.02v10.917l-17 .02v-11.062zM528.372 203.592c-6.66 0-13.28 4.096-19.128 11.292l.02-43.688h-18v134h18l.026-10.068c6.05 7.484 12.645 11.357 19.082 11.357 7.21 0 12.477-3.86 14.893-11.29 1.21-4.235 2-10.757 2-20v-40c0-9.464-1.213-15.935-2.422-19.955-2.416-7.484-7.262-11.648-14.47-11.648zm-2.107 72.604c0 10-2.357 13.832-7.578 13.832-2.98 0-6.415-1.534-9.442-4.562l.02-60.646c3.028-2.988 6.442-4.56 9.423-4.56 5.22 0 7.578 2.935 7.578 12.935v43zM476.265 305.196h-19v-11c-7.203 8.256-13.31 12.426-19.965 12.426-5.84 0-9.896-2.755-11.926-7.732-1.234-3.026-2.11-7.752-2.11-14.693v-79h19v81c.444 2.807 1.636 3.832 4.052 3.832 3.637 0 6.928-3.16 10.95-8.833v-76h19v100z"/>
    <path d="M404.265 305.196h-20v-115h-21v-18.98l63-.02v19h-22"/>
  </g>
</svg>
